<svg xmlns="http://www.w3.org/2000/svg" enable-background="new 0 0 32 32" viewBox="0 0 32 32" id="Atlassian">
  <path fill="#8526fe" d="M26,32H6c-3.314,0-6-2.686-6-6V6c0-3.314,2.686-6,6-6h20c3.314,0,6,2.686,6,6v20C32,29.314,29.314,32,26,32z" class="colore3f8fa svgShape"></path>
  <path fill="#d8a353" d="M18.087,24h5.444c0.35,0,0.575-0.369,0.419-0.678c0,0-7.328-14.706-7.513-15.072c-0.165-0.331-0.587-0.337-0.8,0.003V8.253c-3.822,6.044-0.265,10.894,2.031,15.485C17.746,23.897,17.909,24,18.087,24z" class="color26c6da svgShape"></path>
  <path fill="#5fe4d4" d="M11.981,15.474l-3.931,7.844c-0.156,0.313,0.075,0.678,0.419,0.678h5.469c0.181,0.003,0.344-0.1,0.419-0.263c1.185-2.431,0.472-6.135-1.6-8.347C12.515,15.131,12.14,15.146,11.981,15.474z" class="color8ce1eb svgShape"></path>
</svg>
